<?xml version="1.0" encoding="UTF-8" standalone="no"?>
<!-- Created with Inkscape (http://www.inkscape.org/) -->

<svg
   version="1.1"
   id="svg1"
   width="1000"
   height="666.66669"
   viewBox="0 0 1000 666.66669"
   sodipodi:docname="logo.svg"
   inkscape:version="1.3.2 (091e20ef0f, 2023-11-25)"
   xmlns:inkscape="http://www.inkscape.org/namespaces/inkscape"
   xmlns:sodipodi="http://sodipodi.sourceforge.net/DTD/sodipodi-0.dtd"
   xmlns="http://www.w3.org/2000/svg"
   xmlns:svg="http://www.w3.org/2000/svg">
  <defs
     id="defs1" />
  <sodipodi:namedview
     id="namedview1"
     pagecolor="#ffffff"
     bordercolor="#000000"
     borderopacity="0.25"
     inkscape:showpageshadow="2"
     inkscape:pageopacity="0.0"
     inkscape:pagecheckerboard="0"
     inkscape:deskcolor="#d1d1d1"
     inkscape:zoom="1.888"
     inkscape:cx="606.46186"
     inkscape:cy="320.70975"
     inkscape:window-width="1918"
     inkscape:window-height="1025"
     inkscape:window-x="0"
     inkscape:window-y="0"
     inkscape:window-maximized="1"
     inkscape:current-layer="group-R5">
    <inkscape:page
       x="0"
       y="0"
       inkscape:label="1"
       id="page1"
       width="1000"
       height="666.66669"
       margin="0"
       bleed="0" />
  </sodipodi:namedview>
  <g
     id="g1"
     inkscape:groupmode="layer"
     inkscape:label="1">
    <g
       id="group-R5"
       transform="translate(60.286183,9.5338983)">
      <path
         id="path15"
         d="m 460.41295,352.64884 c 0.97467,-0.3188 8.97734,-2.6204 11.71067,-7.52653 2.42,-4.33907 1.10533,-9.42454 -1.268,-11.08814 -3.32267,-2.33066 -6.66133,6.3224 -10.65867,2.7276 -7.56133,-6.79573 2.37734,-24.33066 8.052,-30.5224 9.36267,-10.216 22.16134,-15.084 34.28934,-19.03466 7.75466,-2.52534 14.664,-9.984 18.54933,-13.064 -1.04933,5.68133 -3.34933,9.908 -6.596,13.39466 32.43467,-4.91866 72.07066,-20.53333 88.692,-50.88799 -3.29867,24.03733 -12.10667,33.78133 -25.21867,42.59199 4.90667,-2.804 10.16933,-4.78666 21.64133,-5.75866 -4.01333,18.056 -21.992,28.50533 -32.36533,31.30253 5.584,-0.29747 12.01067,0.52133 15.76133,4.3296 -7.844,11.6 -17.10266,14.56773 -33.29466,14.80947 7.28133,0.9052 15.916,5.48226 18.62533,11.53333 -5.28933,4.4968 -13.74,5.3968 -20.14133,3.34373 5.524,4.09054 8.628,12.22547 9.20533,18.22654 -6.81733,0.64533 -16.71866,-2.05734 -20.88266,-5.48907 4.388,6.9104 4.92,13.16667 1.868,20.48906 -5.77067,-0.32813 -12.696,-3.71879 -15.81067,-8.60786 0.876,4.80787 -0.18667,11.3172 -5.7,15.92813 -9.07067,-6.9844 -11.492,-13.164 -12.896,-18.19626 -0.0413,6.20573 -1.38267,11.05719 -5.268,14.63333 -3.60667,-2.77294 -4.15867,-6.59333 -4.8,-12.46933 -1.06933,5.03746 -4.328,10.22293 -7.872,10.65733 -1.60667,-2.78654 -2.94267,-6.02133 -2.51867,-11.88133 -1.692,4.28026 -3.828,6.7776 -6.13733,7.63853 -1.76267,-1.864 -2.532,-3.96507 -2.90667,-7.91453 -1.404,2.63226 -4.26,5.33333 -5.804,4.77866 -1.41466,-1.5584 -1.85466,-3.90266 -1.828,-6.90266 -0.788,1.3324 -3.332,2.81466 -5.19733,3.22666 -0.84133,-1.41306 -1.83467,-3.09746 -1.23067,-10.26773"
         style="fill:#2e2f30;fill-opacity:1;fill-rule:evenodd;stroke:none;stroke-width:0.133333"
         inkscape:export-filename="wing-right.png"
         inkscape:export-xdpi="527.04486"
         inkscape:export-ydpi="527.04486" />
      <path
         id="path16"
         d="m 516.70495,310.88991 c -1.57333,1.28706 -5.404,2.68386 -11.604,3.9776 -0.35733,0.0756 -5,0.89693 -5.10933,1.612 -0.19867,1.30626 8.53333,2.2584 13.07467,3.99426 4.37333,1.67094 2.25866,3.3152 -1.15867,3.97507 -5.476,1.0572 -14.896,0.8864 -15.21333,1.95573 -0.15867,0.54014 6.95066,5.57867 7.93466,7.4416 -0.104,0.0183 -0.0653,0.0959 0.12,0.25467 0.71867,1.75053 -1.25466,2.63707 -9.89333,0.88493 -0.20267,-0.0411 -2.22133,-0.2916 -2.15067,-0.0823 0.47334,1.44013 5.81467,7.77346 5.67734,9.47453 -0.544,-0.212 -0.46667,-0.16147 -0.0573,0.2052 -0.328,0.60667 -2.068,0.29053 -6.448,-1.7344 -0.196,-0.0896 -1.90666,-0.72973 -1.93466,-0.6256 -0.308,1.15893 2.93733,8.06253 1.448,9.2136 -0.62534,0.488 -1.876,-0.34533 -4.732,-2.4948 -2.22667,-1.54693 2.648,13.54947 -6.87334,3.48387 -0.28266,-0.30107 -0.88533,-1.22814 -0.74933,-1.0932 3.33333,3.33333 4.95333,-2.1256 4.08267,-7.19747 6.17466,0.4948 3.93866,-5.28907 0.15466,-8.93067 5.38267,-1.5224 3.244,-6.48653 -2.66666,-8.5308 7.10933,-7.8572 -6.39334,-7.54106 -12.87067,-1.70253 0.93867,-5.26147 8.49733,-15.19067 10.888,-17.29173 6.11467,-5.3748 28.032,-15.92547 36.248,-11.1588 4.98667,2.89466 -13.828,8.2068 -13.40667,9.22546 0.21867,0.52654 2.64934,0.53707 3.02134,0.5532 6.396,0.23334 10.492,1.01347 12.172,2.0828 1.096,0.6984 0.92933,1.78387 0.0467,2.50774 z m 2.08267,-1.85054 c -0.0147,-0.1776 -0.0493,-0.36133 -0.10133,-0.54946 -1.53334,-2.87334 -8.624,-3.30934 -13.23867,-3.352 9.04667,-3.47987 12.53333,-6.89587 10.43467,-8.7492 4.80933,-0.20667 18.908,-2.50134 22.10133,-1.79067 15.224,3.38533 -6.05467,11.4372 -13.888,13.3028 -2.15333,0.51573 -3.72933,0.90373 -4.82267,1.20267 z m -1.30933,13.17614 c -0.724,-2.75734 -7.42934,-4.71614 -12.04134,-5.7932 4.90134,-0.9776 12.104,-2.88187 13.21867,-6.2188 3.416,0.3172 12.40133,0.54373 17.85867,4.11973 6.76133,4.43333 -11.95067,7.4016 -13.16667,7.50787 -2.49733,0.22133 -4.33867,0.36146 -5.62667,0.47493 z m -11.088,11.74626 c -0.52134,-1.5916 -2.43334,-3.74626 -6.1,-6.45146 5.20666,-0.0912 14.612,-0.55467 16.896,-3.88027 1.59466,0.5984 4.06266,1.53853 6.90666,3.09747 12.52534,6.86506 -2.708,10.02386 -11.344,8.7104 -2.49733,-0.37867 -4.424,-0.79587 -5.78133,-1.10787 -0.22133,-0.14267 -0.416,-0.2656 -0.57733,-0.36827 z m -6.78667,10.7 c 0.208,-1.61453 -1.38267,-4.5692 -4.276,-8.0812 6.12,1.25627 10.38,0.8588 11.10133,-1.12653 l 0.33334,0.0839 c 0.856,0.6 1.96666,1.3812 3.33066,2.388 7.40134,5.4692 8.25734,12.4708 -3.696,9.09733 -3.22133,-0.90933 -5.31733,-1.63067 -6.61333,-2.10933 z m -6.79467,6.9308 c 0.516,-1.55986 0.0133,-4.46253 -1.18,-7.57453 4.33067,2.09853 6.748,2.39173 7.61734,1.46147 1.156,1.23333 2.79733,3.45986 3.47466,6.9396 1.244,6.4 -6.93066,0.43226 -9.55733,-0.69587 l -0.196,-0.0771 c -0.0547,-0.0213 -0.10933,-0.0401 -0.15867,-0.0536 z m -6.98933,4.38694 c 0.76,-0.8296 1.008,-2.52547 0.97867,-5.78174 3.08666,2.7604 4.888,3.0964 5.69866,2.0188 2.72934,9.23747 -1.04,9.39734 -6.67733,3.76294 z m -0.45867,-50.5484 c 13.57067,-3.62374 17.88267,1.22973 5.21334,7.55786 10.59466,1.94787 9.70133,6.70614 -1.448,8.0916 2.32533,1.02134 4.01866,1.8136 4.97466,2.7188 2.976,2.81867 1.02267,4.5224 -7.09866,3.10147 0,0 6.76266,0.52507 6.71866,-0.61507 -0.13866,-3.47706 -8.48533,-4.2932 -7.74266,-5.4344 0.42666,-0.65466 4.696,-1.3468 5.21066,-1.44786 13.48,-2.69067 -4.476,-4.89894 -4.59866,-5.85987 0.76,-0.66987 24.01333,-10.85627 -1.22934,-8.11253 z m -24.948,47.21613 c 0.0467,4.5188 3.06934,5.84533 5.68134,2.57347 1.184,3.84786 5.37066,2.7896 6.81066,-1.58547 1.04667,1.09893 1.62267,0.98027 1.912,1.36147 0.72667,0.96253 0.27334,3.85213 -0.32266,6.74266 1.19466,-2.164 1.476,-4.8932 1.492,-6.6468 1.22666,-0.34266 1.71066,-2.1 2.00266,-4.2464 1.45067,3.4532 4.484,5.79174 6.09334,5.69587 -0.08,2.288 -0.148,3.1224 -0.588,5.66147 0.992,-2.1776 1.148,-3.20574 1.22933,-5.5484 0.32267,-0.0437 0.55733,-0.124 0.81467,-0.39427 2.28133,3.0036 5.46666,5.10093 7.27866,3.81453 0.612,0.89214 0.516,1.03067 1.08534,3.26507 0.256,-1.6276 0.092,-2.6104 -0.2,-3.64533 0.784,-1.09734 1.224,-3.3452 -0.13334,-6.96667 3.696,2.4896 6.39067,3.53907 8.076,3.46413 0.352,-0.0172 1.04134,0.72134 1.45067,1.7416 0.48933,1.224 0.68533,2.80894 0.872,3.34907 0.21333,-2.76 -0.72667,-3.95213 -1.12,-5.43333 1.74267,-1.1052 0.97467,-4.79587 -2.34,-9.86414 3.104,1.34174 7.752,3.3084 11.45733,3.26987 3.85467,4.98227 7.74,8.9916 10.80534,14.49427 -3.052,-7.212 -4.98267,-9.4548 -10,-14.5548 1.072,-0.0343 1.468,-0.188 2.30933,-0.63854 4.72667,-2.53333 0.91733,-7.14 -3.148,-10.56813 10.04133,4.07333 14.388,6.34573 24.59333,13.60933 -12.22666,-12.0516 -21.58,-13.20106 -26.76,-15.3224 5.628,1.3 11.65067,2.08907 17.05734,-0.2896 5.79466,-2.54893 15.508,1.12294 21.456,2.84174 -14.024,-6.5308 -13.508,-5.2308 -17.50267,-6.02814 1.388,-3.49746 -5.204,-7.16413 -10.13867,-9.3136 13.22134,-0.51453 18.972,-0.0213 29.04934,0.41094 -7.396,-2.0948 -11.32,-2.12654 -16.38267,-2.53747 0.61467,-0.2344 1.232,-0.4948 1.84933,-0.78387 13.24667,-6.22546 -3.60133,-10.44693 -13.19066,-11.13333 l 2.44533,-0.53493 c 2.32133,-0.59054 4.448,-0.85467 7.18533,-2.0396 0.188,-0.0817 26.812,-0.83907 35.768,-2.13334 -12.13466,-0.1228 -21.01866,0.16094 -33.38533,0.63707 8.77067,-4.12253 15.81467,-10.0172 3.024,-11.28653 17.124,-2.91467 25.32,-5.03867 41.692,-15.45734 -15.36934,8.392 -51.95333,16.8 -64.132,15.732 -2.24267,-0.196 -5.41467,-0.188 -10.20133,0.74 3.67733,-1.844 6.19333,-3.836 10.096,-7.52266 -18.552,14.52666 -37.98934,9.79333 -47.52267,34.72266 -4.15867,10.8692 3.71067,1.82294 8.31467,0.6864 8.484,-2.09586 5.084,0.96307 3.06533,3.44174 -1.72133,2.1156 12.904,4.9052 3.11467,7.4864 -3.42667,0.90266 10.248,9.16413 0.96133,8.7016 -0.64667,-0.0308 -0.0133,2.26093 -0.04,4.39733 -0.0387,3.10107 -0.79333,6.05573 -3.26267,2.612 -0.26266,-0.3656 -0.48666,-0.65213 -0.68533,-0.8724 v -0.0973 l -0.0693,0.0229 c -0.39067,-0.4188 -0.81334,-0.87613 -0.868,-0.69333 -0.33067,1.14533 -0.52534,9.73333 -4.484,4.0172 -0.0813,-0.0735 -4.224,8.8172 -6.5,1.87186 -0.63734,-0.12906 -4.46,6.99747 -6.06534,-1.22653 v 0"
         style="fill:#ffffff;fill-opacity:1;fill-rule:evenodd;stroke:none;stroke-width:0.133333" />
      <path
         id="path17"
         d="m 445.33029,352.64884 c -0.97467,-0.3188 -8.976,-2.6204 -11.712,-7.52653 -2.41867,-4.33907 -1.10267,-9.42454 1.26933,-11.08814 3.32,-2.33066 6.66,6.3224 10.65867,2.7276 7.56133,-6.79573 -2.37867,-24.33066 -8.052,-30.5224 -9.36134,-10.216 -22.16133,-15.084 -34.28933,-19.03466 -7.756,-2.52534 -14.66534,-9.984 -18.54934,-13.064 1.048,5.68133 3.34934,9.908 6.596,13.39466 -32.43466,-4.91866 -72.06933,-20.53333 -88.692,-50.88799 3.3,24.03733 12.10667,33.78133 25.21867,42.59199 -4.908,-2.804 -10.16933,-4.78666 -21.64267,-5.75866 4.01467,18.056 21.99467,28.50533 32.36534,31.30253 -5.584,-0.29747 -12.01067,0.52133 -15.75867,4.3296 7.844,11.6 17.10133,14.56773 33.29333,14.80947 -7.28,0.9052 -15.91733,5.48226 -18.62666,11.53333 5.292,4.4968 13.74133,5.3968 20.14266,3.34373 -5.524,4.09054 -8.628,12.22547 -9.20533,18.22654 6.81733,0.64533 16.71867,-2.05734 20.88267,-5.48907 -4.38934,6.9104 -4.91867,13.16667 -1.86667,20.48906 5.768,-0.32813 12.69467,-3.71879 15.80933,-8.60786 -0.87466,4.80787 0.18667,11.3172 5.69867,15.92813 9.06933,-6.9844 11.49467,-13.164 12.89733,-18.19626 0.0413,6.20573 1.38267,11.05719 5.26667,14.63333 3.60933,-2.77294 4.16133,-6.59333 4.80133,-12.46933 1.07067,5.03746 4.328,10.22293 7.87067,10.65733 1.608,-2.78654 2.944,-6.02133 2.51733,-11.88133 1.696,4.28026 3.82934,6.7776 6.13867,7.63853 1.76533,-1.864 2.53066,-3.96507 2.90666,-7.91453 1.404,2.63226 4.26267,5.33333 5.80667,4.77866 1.41067,-1.5584 1.85333,-3.90266 1.828,-6.90266 0.78667,1.3324 3.33067,2.81466 5.19467,3.22666 0.84266,-1.41306 1.836,-3.09746 1.232,-10.26773"
         style="fill:#2e2f30;fill-opacity:1;fill-rule:evenodd;stroke:none;stroke-width:0.133333"
         inkscape:export-filename="wing-left.png"
         inkscape:export-xdpi="527.04486"
         inkscape:export-ydpi="527.04486" />
      <path
         id="path18"
         d="m 389.03829,310.88991 c 1.57333,1.28706 5.404,2.68386 11.60533,3.9776 0.356,0.0756 5,0.89693 5.108,1.612 0.19734,1.30626 -8.53466,2.2584 -13.076,3.99426 -4.37066,1.67094 -2.256,3.3152 1.16,3.97507 5.47734,1.0572 14.89334,0.8864 15.21334,1.95573 0.15866,0.54014 -6.95067,5.57867 -7.936,7.4416 0.10533,0.0183 0.0667,0.0959 -0.11867,0.25467 -0.72133,1.75053 1.256,2.63707 9.89333,0.88493 0.20267,-0.0411 2.22,-0.2916 2.15067,-0.0823 -0.47467,1.44013 -5.816,7.77346 -5.67733,9.47453 0.54533,-0.212 0.46533,-0.16147 0.0573,0.2052 0.32933,0.60667 2.068,0.29053 6.44933,-1.7344 0.192,-0.0896 1.90534,-0.72973 1.93334,-0.6256 0.308,1.15893 -2.936,8.06253 -1.44667,9.2136 0.62533,0.488 1.87333,-0.34533 4.732,-2.4948 2.22667,-1.54693 -2.64933,13.54947 6.87067,3.48387 0.28533,-0.30107 0.88533,-1.22814 0.74933,-1.0932 -3.332,3.33333 -4.952,-2.1256 -4.08267,-7.19747 -6.17466,0.4948 -3.936,-5.28907 -0.152,-8.93067 -5.38266,-1.5224 -3.24533,-6.48653 2.66667,-8.5308 -7.112,-7.8572 6.39066,-7.54106 12.868,-1.70253 -0.936,-5.26147 -8.496,-15.19067 -10.88667,-17.29173 -6.11466,-5.3748 -28.032,-15.92547 -36.24933,-11.1588 -4.98533,2.89466 13.828,8.2068 13.40667,9.22546 -0.21734,0.52654 -2.64667,0.53707 -3.02134,0.5532 -6.39333,0.23334 -10.492,1.01347 -12.172,2.0828 -1.096,0.6984 -0.928,1.78387 -0.0453,2.50774 z m -2.08267,-1.85054 c 0.016,-0.1776 0.048,-0.36133 0.0987,-0.54946 1.536,-2.87334 8.62667,-3.30934 13.24267,-3.352 -9.04667,-3.47987 -12.53467,-6.89587 -10.436,-8.7492 -4.80934,-0.20667 -18.908,-2.50134 -22.10267,-1.79067 -15.22267,3.38533 6.056,11.4372 13.888,13.3028 2.156,0.51573 3.73067,0.90373 4.82267,1.20267 z m 1.30934,13.17614 c 0.724,-2.75734 7.43066,-4.71614 12.04266,-5.7932 -4.90133,-0.9776 -12.10666,-2.88187 -13.21866,-6.2188 -3.41867,0.3172 -12.40134,0.54373 -17.86,4.11973 -6.76134,4.43333 11.95066,7.4016 13.16666,7.50787 2.49467,0.22133 4.33867,0.36146 5.628,0.47493 z m 11.08933,11.74626 c 0.52,-1.5916 2.432,-3.74626 6.09733,-6.45146 -5.20666,-0.0912 -14.61333,-0.55467 -16.89466,-3.88027 -1.59334,0.5984 -4.06267,1.53853 -6.908,3.09747 -12.52534,6.86506 2.71066,10.02386 11.344,8.7104 2.49733,-0.37867 4.42666,-0.79587 5.78266,-1.10787 0.22134,-0.14267 0.41734,-0.2656 0.57867,-0.36827 z m 6.784,10.7 c -0.20667,-1.61453 1.384,-4.5692 4.27867,-8.0812 -6.12134,1.25627 -10.38134,0.8588 -11.10267,-1.12653 l -0.33333,0.0839 c -0.85734,0.6 -1.96534,1.3812 -3.33067,2.388 -7.40133,5.4692 -8.25733,12.4708 3.696,9.09733 3.21867,-0.90933 5.31733,-1.63067 6.61467,-2.10933 z m 6.79467,6.9308 c -0.51467,-1.55986 -0.012,-4.46253 1.18,-7.57453 -4.32934,2.09853 -6.74667,2.39173 -7.61734,1.46147 -1.15733,1.23333 -2.79466,3.45986 -3.472,6.9396 -1.24533,6.4 6.92667,0.43226 9.556,-0.69587 l 0.19467,-0.0771 c 0.056,-0.0213 0.10933,-0.0401 0.15867,-0.0536 z m 6.99066,4.38694 c -0.76133,-0.8296 -1.00666,-2.52547 -0.97866,-5.78174 -3.088,2.7604 -4.88934,3.0964 -5.69734,2.0188 -2.72933,9.23747 1.03867,9.39734 6.676,3.76294 z m 0.45867,-50.5484 c -13.57067,-3.62374 -17.88267,1.22973 -5.216,7.55786 -10.59067,1.94787 -9.69733,6.70614 1.44933,8.0916 -2.324,1.02134 -4.01733,1.8136 -4.972,2.7188 -2.97733,2.81867 -1.02533,4.5224 7.096,3.10147 0,0 -6.76,0.52507 -6.716,-0.61507 0.136,-3.47706 8.484,-4.2932 7.73867,-5.4344 -0.424,-0.65466 -4.692,-1.3468 -5.21067,-1.44786 -13.47866,-2.69067 4.47867,-4.89894 4.60134,-5.85987 -0.76,-0.66987 -24.012,-10.85627 1.22933,-8.11253 z m 24.948,47.21613 c -0.0467,4.5188 -3.07067,5.84533 -5.68267,2.57347 -1.18133,3.84786 -5.37067,2.7896 -6.80933,-1.58547 -1.04667,1.09893 -1.62267,0.98027 -1.912,1.36147 -0.72534,0.96253 -0.27467,3.85213 0.324,6.74266 -1.196,-2.164 -1.47867,-4.8932 -1.49334,-6.6468 -1.22666,-0.34266 -1.71066,-2.1 -2.00133,-4.2464 -1.45066,3.4532 -4.488,5.79174 -6.096,5.69587 0.0827,2.288 0.15067,3.1224 0.59067,5.66147 -0.99467,-2.1776 -1.14933,-3.20574 -1.22933,-5.5484 -0.324,-0.0437 -0.55734,-0.124 -0.816,-0.39427 -2.28134,3.0036 -5.46534,5.10093 -7.28134,3.81453 -0.61066,0.89214 -0.512,1.03067 -1.08266,3.26507 -0.25734,-1.6276 -0.092,-2.6104 0.19733,-3.64533 -0.78133,-1.09734 -1.22267,-3.3452 0.136,-6.96667 -3.69467,2.4896 -6.39067,3.53907 -8.07733,3.46413 -0.35067,-0.0172 -1.04134,0.72134 -1.45067,1.7416 -0.488,1.224 -0.68267,2.80894 -0.87067,3.34907 -0.21466,-2.76 0.72534,-3.95213 1.11867,-5.43333 -1.74133,-1.1052 -0.972,-4.79587 2.34267,-9.86414 -3.104,1.34174 -7.75467,3.3084 -11.46134,3.26987 -3.852,4.98227 -7.73866,8.9916 -10.80133,14.49427 3.052,-7.212 4.98133,-9.4548 10,-14.5548 -1.07333,-0.0343 -1.46933,-0.188 -2.31067,-0.63854 -4.728,-2.53333 -0.91733,-7.14 3.14934,-10.56813 -10.04267,4.07333 -14.38934,6.34573 -24.59467,13.60933 12.22533,-12.0516 21.58,-13.20106 26.76133,-15.3224 -5.62933,1.3 -11.65333,2.08907 -17.05733,-0.2896 -5.79733,-2.54893 -15.50933,1.12294 -21.456,2.84174 14.02133,-6.5308 13.50667,-5.2308 17.50267,-6.02814 -1.388,-3.49746 5.20266,-7.16413 10.136,-9.3136 -13.22134,-0.51453 -18.972,-0.0213 -29.04934,0.41094 7.39734,-2.0948 11.32134,-2.12654 16.384,-2.53747 -0.61733,-0.2344 -1.232,-0.4948 -1.84933,-0.78387 -13.24933,-6.22546 3.60133,-10.44693 13.188,-11.13333 l -2.44267,-0.53493 c -2.32,-0.59054 -4.448,-0.85467 -7.188,-2.0396 -0.184,-0.0817 -26.81066,-0.83907 -35.76533,-2.13334 12.13333,-0.1228 21.01867,0.16094 33.384,0.63707 -8.77067,-4.12253 -15.81333,-10.0172 -3.02267,-11.28653 -17.12533,-2.91467 -25.32,-5.03867 -41.69333,-15.45734 15.372,8.392 51.95333,16.8 64.13333,15.732 2.24,-0.196 5.41467,-0.188 10.20134,0.74 -3.67734,-1.844 -6.192,-3.836 -10.096,-7.52266 18.55066,14.52666 37.98799,9.79333 47.52399,34.72266 4.15734,10.8692 -3.71333,1.82294 -8.316,0.6864 -8.48399,-2.09586 -5.08266,0.96307 -3.06533,3.44174 1.72133,2.1156 -12.90266,4.9052 -3.11466,7.4864 3.42799,0.90266 -10.24667,9.16413 -0.96134,8.7016 0.64534,-0.0308 0.0133,2.26093 0.04,4.39733 0.036,3.10107 0.79334,6.05573 3.26267,2.612 0.26133,-0.3656 0.488,-0.65213 0.68533,-0.8724 v -0.0973 l 0.0693,0.0229 c 0.39067,-0.4188 0.81334,-0.87613 0.86667,-0.69333 0.332,1.14533 0.528,9.73333 4.48533,4.0172 0.08,-0.0735 4.224,8.8172 6.5,1.87186 0.63867,-0.12906 4.45867,6.99747 6.06534,-1.22653 v 0"
         style="fill:#ffffff;fill-opacity:1;fill-rule:evenodd;stroke:none;stroke-width:0.133333" />
      <text
         xml:space="preserve"
         style="font-weight:bold;font-size:74.6667px;font-family:'Liberation Sans';-inkscape-font-specification:'Liberation Sans Bold';text-align:center;text-anchor:middle;fill:#000000;fill-opacity:0.479224"
         x="344.27344"
         y="227.31767"
         id="text38"><tspan
           sodipodi:role="line"
           id="tspan38"
           x="344.27344"
           y="227.31767" /></text>
      <text
         xml:space="preserve"
         style="font-weight:bold;font-size:74.6667px;font-family:'Liberation Sans';-inkscape-font-specification:'Liberation Sans Bold';text-align:center;text-anchor:middle;fill:#000000;fill-opacity:0.479224"
         x="345.19208"
         y="206.28433"
         id="text39"><tspan
           sodipodi:role="line"
           id="tspan39"
           x="345.19208"
           y="206.28433" /></text>
      <text
         xml:space="preserve"
         style="font-weight:bold;font-size:74.6667px;font-family:'Liberation Sans';-inkscape-font-specification:'Liberation Sans Bold';text-align:center;text-anchor:middle;fill:#000000;fill-opacity:1"
         x="373.18756"
         y="193.7442"
         id="text40"><tspan
           sodipodi:role="line"
           id="tspan40"
           x="373.18756"
           y="193.7442" /></text>
      <text
         xml:space="preserve"
         style="font-weight:bold;font-size:74.6667px;font-family:'Liberation Sans';-inkscape-font-specification:'Liberation Sans Bold';text-align:center;text-anchor:middle;fill:#000080;fill-opacity:0.479224"
         x="439.02689"
         y="194.21593"
         id="text1"
         inkscape:export-filename="name.png"
         inkscape:export-xdpi="534.32916"
         inkscape:export-ydpi="534.32916"><tspan
           sodipodi:role="line"
           id="tspan1"
           x="439.02689"
           y="194.21593"
           style="font-style:normal;font-variant:normal;font-weight:bold;font-stretch:normal;font-family:HanaMinA;-inkscape-font-specification:HanaMinA;fill:#000000;fill-opacity:1">天使</tspan></text>
      <text
         xml:space="preserve"
         style="font-style:normal;font-variant:normal;font-weight:normal;font-stretch:normal;font-size:26.6667px;font-family:HanaMinA;-inkscape-font-specification:HanaMinA;text-align:center;text-anchor:middle;fill:#000000;fill-opacity:1"
         x="438.46207"
         y="224.21213"
         id="text2"><tspan
           sodipodi:role="line"
           id="tspan2"
           x="438.46207"
           y="224.21213"
           style="font-style:normal;font-variant:normal;font-weight:normal;font-stretch:normal;font-size:26.6667px;font-family:HanaMinA;-inkscape-font-specification:HanaMinA">tenshi v1.0</tspan></text>
    </g>
  </g>
</svg>
